<svg xmlns="http://www.w3.org/2000/svg" viewBox="0 0 248.95 218.44"><defs><style>.cls-1{opacity:0.5;}.cls-2{fill:#ddebff;opacity:0.4;}.cls-3{fill:#c2b9f3;}.cls-4{fill:#96d6ff;}.cls-5,.cls-6{fill:#fff;}.cls-6{stroke:#444;opacity:0.6;}.cls-12,.cls-6{stroke-miterlimit:10;stroke-width:2px;}.cls-7{fill:#ebf4ff;}.cls-8{fill:#c0e6ff;}.cls-9{fill:#7db5dc;}.cls-10{fill:#cfd6df;}.cls-11{fill:#dff2ff;}.cls-12{fill:none;stroke:#6262a0;}.cls-13{fill:#6262a0;}.cls-14{fill:#8fd663;}.cls-15{fill:#c5eaad;}.cls-16{fill:#79b764;}</style></defs><title>Asset 80</title><g id="Layer_2" data-name="Layer 2"><g id="Layer_1-2" data-name="Layer 1"><g class="cls-1"><path class="cls-2" d="M248.42,68.63q-.24,1.56-.6,3.16c-2,9.07-6.83,17.25-9.06,26.26-5.38,21.83,12.26,41.28,6.26,62.57-1.81,6.4-5.84,11.9-10.33,16.71-11.53,12.39-26.23,21.08-40.7,29.6-6.71,3.95-14.07,8-21.71,6.9-7.22-1.07-13.05-6.6-20-8.91-13.86-4.61-28.09,4.17-41.83,9.16-10.84,3.93-22.62,5.54-33.92,3.44S54.45,209.4,47.43,200c-4.84-6.46-8-14.54-14.55-19.18-6-4.26-13.77-4.84-20.16-8.42A25.69,25.69,0,0,1,0,150.33C.08,135.27,12.81,123.84,18.53,110c4.65-11.25,4.56-23.93,3.72-36.12-.95-13.79-2.64-28,.85-41.58,5.32-20.66,20-25.14,38.43-27.9,16.5-2.46,33.73-7.26,50.21-2,7.71,2.45,14.15,8,22.07,9.87,14.49,3.5,28.24-5.43,42.55-5.9,12-.39,24.79,2.71,35.79,7.59C233.36,23.32,252.38,43.09,248.42,68.63Z"/><polygon class="cls-3" points="28.32 151.74 25.27 150.87 22.11 151.26 22 148.09 20.65 145.21 23.63 144.12 25.95 141.94 27.91 144.45 30.7 145.98 28.92 148.62 28.32 151.74"/><polygon class="cls-4" points="67.82 24 64.76 23.13 61.61 23.52 61.49 20.35 60.14 17.47 63.13 16.38 65.45 14.21 67.4 16.71 70.19 18.24 68.41 20.88 67.82 24"/><polygon class="cls-4" points="228.05 176 225 175.13 221.84 175.52 221.73 172.35 220.38 169.47 223.36 168.38 225.68 166.21 227.64 168.71 230.43 170.24 228.65 172.88 228.05 176"/><polygon class="cls-4" points="77.87 209.4 74.81 208.52 71.66 208.92 71.54 205.74 70.19 202.86 73.18 201.78 75.5 199.6 77.45 202.1 80.24 203.64 78.46 206.27 77.87 209.4"/><polygon class="cls-3" points="216.96 47.16 212.56 45.9 208.01 46.47 207.85 41.9 205.9 37.75 210.2 36.18 213.54 33.05 216.36 36.66 220.38 38.86 217.82 42.66 216.96 47.16"/><path class="cls-5" d="M30.19,116.32H56a1.25,1.25,0,0,0,0-2.5H30.19a1.25,1.25,0,0,0,0,2.5Z"/><path class="cls-5" d="M32.62,121.64H45.5a1.25,1.25,0,0,0,0-2.5H32.62a1.25,1.25,0,0,0,0,2.5Z"/><path class="cls-5" d="M62.48,116.32h8.8a1.25,1.25,0,0,0,0-2.5h-8.8a1.25,1.25,0,0,0,0,2.5Z"/><path class="cls-5" d="M15.82,127h6.47a1.25,1.25,0,0,0,0-2.5H15.82a1.25,1.25,0,0,0,0,2.5Z"/><path class="cls-5" d="M27.62,127H53.39a1.25,1.25,0,0,0,0-2.5H27.62a1.25,1.25,0,0,0,0,2.5Z"/><path class="cls-5" d="M146.32,182.11H120.54a1.25,1.25,0,0,0,0,2.5h25.78a1.25,1.25,0,0,0,0-2.5Z"/><path class="cls-5" d="M143.89,187.43H131a1.25,1.25,0,0,0,0,2.5h12.89a1.25,1.25,0,0,0,0-2.5Z"/><path class="cls-5" d="M114,182.11h-8.8a1.25,1.25,0,0,0,0,2.5H114a1.25,1.25,0,0,0,0-2.5Z"/><path class="cls-5" d="M160.69,192.76h-6.47a1.25,1.25,0,0,0,0,2.5h6.47a1.25,1.25,0,0,0,0-2.5Z"/><path class="cls-5" d="M148.89,192.76H123.11a1.25,1.25,0,0,0,0,2.5h25.78a1.25,1.25,0,0,0,0-2.5Z"/><path class="cls-5" d="M201.78,17.85H176a1.25,1.25,0,0,0,0,2.5h25.78a1.25,1.25,0,0,0,0-2.5Z"/><path class="cls-5" d="M199.36,23.18H186.47a1.25,1.25,0,0,0,0,2.5h12.89a1.25,1.25,0,0,0,0-2.5Z"/><path class="cls-5" d="M169.49,17.85h-8.8a1.25,1.25,0,0,0,0,2.5h8.8a1.25,1.25,0,0,0,0-2.5Z"/><path class="cls-5" d="M216.15,28.5h-6.47a1.25,1.25,0,0,0,0,2.5h6.47a1.25,1.25,0,0,0,0-2.5Z"/><path class="cls-5" d="M204.36,28.5H178.58a1.25,1.25,0,0,0,0,2.5h25.78a1.25,1.25,0,0,0,0-2.5Z"/><path class="cls-6" d="M20.65,66.87A13.37,13.37,0,0,0,34,80.25H65.66A13.38,13.38,0,0,0,70.51,54.4v-.3a14,14,0,0,0-25.68-7.69A8.42,8.42,0,0,0,40.11,45a8.51,8.51,0,0,0-8.52,8.52v.22A13.39,13.39,0,0,0,20.65,66.87Z"/><path class="cls-6" d="M234.21,116.87v-.22a8.42,8.42,0,0,0-8.43-8.43,8.34,8.34,0,0,0-4.68,1.42,13.85,13.85,0,0,0-25.42,7.61v.3a13.24,13.24,0,0,0,4.8,25.59h31.31a13.25,13.25,0,0,0,2.41-26.27Z"/></g><rect class="cls-5" x="41.56" y="46.62" width="188.06" height="125.19" rx="3.48" ry="3.48" transform="translate(244.81 -26.37) rotate(90)"/><path class="cls-7" d="M198.2,191.9v6.89a3.48,3.48,0,0,1-3.48,3.49H76.49A3.48,3.48,0,0,1,73,198.79v-6.64C94.59,192.66,167.35,192.14,198.2,191.9Z"/><rect class="cls-8" x="62.63" y="55.76" width="142.44" height="102.13" rx="4.09" ry="4.09" transform="translate(240.67 -27.03) rotate(90)"/><polyline class="cls-9" points="178.08 35.6 86.9 36.88 82.79 36.73 82.79 43.43 93.13 43.43 178.08 43.43 184.91 43.43 184.91 36.73 178.08 35.6"/><path class="cls-10" d="M186.88,13,75.61,14.21c-5.78,0-2.87,2.9-2.87,8v2.71c0-5.11,4.68-4.14,10.46-4.14H186.74c5.78,0,10.46-1,10.46,4.14V17.11C197.2,12,192.66,13,186.88,13Z"/><polygon class="cls-11" points="184.92 48.43 184.92 56.01 82.78 149.15 82.78 141.57 184.92 48.43"/><path class="cls-11" d="M184.92,64.92V72.5L83.68,164.79a8.16,8.16,0,0,1-.9-3.78v-3Z"/><path class="cls-11" d="M182.39,90.47v29.28l-61.48,56.07H88.82Z"/><polygon class="cls-11" points="184.92 128.81 184.92 158.07 163.02 178.04 130.93 178.04 184.92 128.81"/><rect class="cls-12" x="62.63" y="55.76" width="142.44" height="102.13" transform="translate(240.67 -27.03) rotate(90)"/><rect class="cls-12" x="40.69" y="45.65" width="188.06" height="125.19" rx="3.48" ry="3.48" transform="translate(242.97 -26.48) rotate(90)"/><rect class="cls-13" x="120.57" y="23.36" width="28.32" height="3.5"/><circle class="cls-13" cx="134.73" cy="189.78" r="5.41"/><circle class="cls-14" cx="135.59" cy="102.38" r="30.77"/><path class="cls-15" d="M111.42,102.38a30.76,30.76,0,0,1,28-30.63c-.92-.08-1.85-.14-2.8-.14a30.77,30.77,0,0,0,0,61.53c.94,0,1.87-.06,2.8-.14A30.76,30.76,0,0,1,111.42,102.38Z"/><path class="cls-16" d="M160.8,102.38a30.76,30.76,0,0,0-28-30.63c.92-.08,1.85-.14,2.8-.14a30.77,30.77,0,1,1,0,61.53c-.94,0-1.87-.06-2.8-.14A30.76,30.76,0,0,0,160.8,102.38Z"/><path class="cls-5" d="M137,116.25v4.32h-2.9v-4.2a16.23,16.23,0,0,1-7.52-1.83V109a11.6,11.6,0,0,0,3.44,1.73,15.82,15.82,0,0,0,4.08.91v-7.24q-4.65-1.73-6.35-3.75a7.38,7.38,0,0,1-1.7-4.92,7.23,7.23,0,0,1,2.21-5.32,9.28,9.28,0,0,1,5.85-2.56v-3.7H137v3.62a14.72,14.72,0,0,1,6.26,1.35v5.37A15,15,0,0,0,137,92.47V100a16,16,0,0,1,6.24,3.59,6.89,6.89,0,0,1,1.89,4.88,7,7,0,0,1-2.11,5.32A10.06,10.06,0,0,1,137,116.25Zm-2.9-17.4v-6.3q-2.76.5-2.76,2.88Q131.33,97.48,134.1,98.85Zm2.9,6.72v6q2.84-.44,2.84-2.84Q139.84,106.8,137,105.57Z"/><circle class="cls-12" cx="135.59" cy="102.38" r="30.77"/></g></g></svg>