<svg xmlns="http://www.w3.org/2000/svg" viewBox="0 0 248.95 218.44"><defs><style>.cls-1{opacity:0.5;}.cls-2{fill:#ddebff;opacity:0.4;}.cls-3{fill:#c2b9f3;}.cls-4{fill:#96d6ff;}.cls-5,.cls-6{fill:#fff;}.cls-6{stroke:#444;opacity:0.6;}.cls-6,.cls-8{stroke-miterlimit:10;stroke-width:2px;}.cls-7{fill:#ff8c8c;}.cls-8{fill:none;stroke:#6262a0;}.cls-9{fill:#c6d1ea;}.cls-10{fill:#ebf4ff;}.cls-11{fill:#a5b5d0;}</style></defs><title>Asset 40</title><g id="Layer_2" data-name="Layer 2"><g id="Layer_1-2" data-name="Layer 1"><g class="cls-1"><path class="cls-2" d="M248.42,68.63q-.24,1.56-.6,3.16c-2,9.07-6.83,17.25-9.06,26.26-5.38,21.83,12.26,41.28,6.26,62.57-1.81,6.4-5.84,11.9-10.33,16.71-11.53,12.39-26.23,21.08-40.7,29.6-6.71,3.95-14.07,8-21.71,6.9-7.22-1.07-13.05-6.6-20-8.91-13.86-4.61-28.09,4.17-41.83,9.16-10.84,3.93-22.62,5.54-33.92,3.44S54.45,209.4,47.43,200c-4.84-6.46-8-14.54-14.55-19.18-6-4.26-13.77-4.84-20.16-8.42A25.69,25.69,0,0,1,0,150.33C.08,135.27,12.81,123.84,18.53,110c4.65-11.25,4.56-23.93,3.72-36.12-.95-13.79-2.64-28,.85-41.58,5.32-20.66,20-25.14,38.43-27.9,16.5-2.46,33.73-7.26,50.21-2,7.71,2.45,14.15,8,22.07,9.87,14.49,3.5,28.24-5.43,42.55-5.9,12-.39,24.79,2.71,35.79,7.59C233.36,23.32,252.38,43.09,248.42,68.63Z"/><polygon class="cls-3" points="28.32 151.74 25.27 150.87 22.11 151.26 22 148.09 20.65 145.21 23.63 144.12 25.95 141.94 27.91 144.45 30.7 145.98 28.92 148.62 28.32 151.74"/><polygon class="cls-4" points="67.82 24 64.76 23.13 61.61 23.52 61.49 20.35 60.14 17.47 63.13 16.38 65.45 14.21 67.4 16.71 70.19 18.24 68.41 20.88 67.82 24"/><polygon class="cls-4" points="228.05 176 225 175.13 221.84 175.52 221.73 172.35 220.38 169.47 223.36 168.38 225.68 166.21 227.64 168.71 230.43 170.24 228.65 172.88 228.05 176"/><polygon class="cls-4" points="77.87 209.4 74.81 208.52 71.66 208.92 71.54 205.74 70.19 202.86 73.18 201.78 75.5 199.6 77.45 202.1 80.24 203.64 78.46 206.27 77.87 209.4"/><polygon class="cls-3" points="216.96 47.16 212.56 45.9 208.01 46.47 207.85 41.9 205.9 37.75 210.2 36.18 213.54 33.05 216.36 36.66 220.38 38.86 217.82 42.66 216.96 47.16"/><path class="cls-5" d="M30.19,116.32H56a1.25,1.25,0,0,0,0-2.5H30.19a1.25,1.25,0,0,0,0,2.5Z"/><path class="cls-5" d="M32.62,121.64H45.5a1.25,1.25,0,0,0,0-2.5H32.62a1.25,1.25,0,0,0,0,2.5Z"/><path class="cls-5" d="M62.48,116.32h8.8a1.25,1.25,0,0,0,0-2.5h-8.8a1.25,1.25,0,0,0,0,2.5Z"/><path class="cls-5" d="M15.82,127h6.47a1.25,1.25,0,0,0,0-2.5H15.82a1.25,1.25,0,0,0,0,2.5Z"/><path class="cls-5" d="M27.62,127H53.39a1.25,1.25,0,0,0,0-2.5H27.62a1.25,1.25,0,0,0,0,2.5Z"/><path class="cls-5" d="M146.32,182.11H120.54a1.25,1.25,0,0,0,0,2.5h25.78a1.25,1.25,0,0,0,0-2.5Z"/><path class="cls-5" d="M143.89,187.43H131a1.25,1.25,0,0,0,0,2.5h12.89a1.25,1.25,0,0,0,0-2.5Z"/><path class="cls-5" d="M114,182.11h-8.8a1.25,1.25,0,0,0,0,2.5H114a1.25,1.25,0,0,0,0-2.5Z"/><path class="cls-5" d="M160.69,192.76h-6.47a1.25,1.25,0,0,0,0,2.5h6.47a1.25,1.25,0,0,0,0-2.5Z"/><path class="cls-5" d="M148.89,192.76H123.11a1.25,1.25,0,0,0,0,2.5h25.78a1.25,1.25,0,0,0,0-2.5Z"/><path class="cls-5" d="M201.78,17.85H176a1.25,1.25,0,0,0,0,2.5h25.78a1.25,1.25,0,0,0,0-2.5Z"/><path class="cls-5" d="M199.36,23.18H186.47a1.25,1.25,0,0,0,0,2.5h12.89a1.25,1.25,0,0,0,0-2.5Z"/><path class="cls-5" d="M169.49,17.85h-8.8a1.25,1.25,0,0,0,0,2.5h8.8a1.25,1.25,0,0,0,0-2.5Z"/><path class="cls-5" d="M216.15,28.5h-6.47a1.25,1.25,0,0,0,0,2.5h6.47a1.25,1.25,0,0,0,0-2.5Z"/><path class="cls-5" d="M204.36,28.5H178.58a1.25,1.25,0,0,0,0,2.5h25.78a1.25,1.25,0,0,0,0-2.5Z"/><path class="cls-6" d="M20.65,66.87A13.37,13.37,0,0,0,34,80.25H65.66A13.38,13.38,0,0,0,70.51,54.4v-.3a14,14,0,0,0-25.68-7.69A8.42,8.42,0,0,0,40.11,45a8.51,8.51,0,0,0-8.52,8.52v.22A13.39,13.39,0,0,0,20.65,66.87Z"/><path class="cls-6" d="M234.21,116.87v-.22a8.42,8.42,0,0,0-8.43-8.43,8.34,8.34,0,0,0-4.68,1.42,13.85,13.85,0,0,0-25.42,7.61v.3a13.24,13.24,0,0,0,4.8,25.59h31.31a13.25,13.25,0,0,0,2.41-26.27Z"/></g><polygon class="cls-7" points="179.89 98.89 143.23 43.71 104.97 94.44 74.83 70.4 78.45 65.88 103.93 86.2 143.52 33.69 184.72 95.68 179.89 98.89"/><polygon class="cls-8" points="179.89 98.89 143.23 43.71 104.97 94.44 74.83 70.4 78.45 65.88 103.93 86.2 143.52 33.69 184.72 95.68 179.89 98.89"/><rect class="cls-9" x="54.96" y="97.99" width="22.24" height="92.15" rx="0.9" ry="0.9"/><rect class="cls-9" x="93.89" y="130.06" width="22.24" height="60.08" rx="0.9" ry="0.9"/><rect class="cls-9" x="132.82" y="85.55" width="22.24" height="104.59" rx="0.9" ry="0.9"/><rect class="cls-9" x="171.75" y="136.37" width="22.24" height="53.77" rx="0.9" ry="0.9"/><path class="cls-10" d="M76.31,99.59H55.86a.9.9,0,0,0-.9.9v12.44a.9.9,0,0,1,.9-.9H76.31a.9.9,0,0,1,.9.9V100.49A.9.9,0,0,0,76.31,99.59Z"/><path class="cls-11" d="M76.31,176.8H55.86a.9.9,0,0,0-.9.9v12.44a.9.9,0,0,1,.9-.9H76.31a.9.9,0,0,1,.9.9V177.7A.9.9,0,0,0,76.31,176.8Z"/><path class="cls-11" d="M116.07,176.8H95.62a.9.9,0,0,0-.9.9v12.44a.9.9,0,0,1,.9-.9h20.45a.9.9,0,0,1,.9.9V177.7A.9.9,0,0,0,116.07,176.8Z"/><path class="cls-11" d="M154.16,176.8H133.71a.9.9,0,0,0-.9.9v12.44a.9.9,0,0,1,.9-.9h20.45a.9.9,0,0,1,.9.9V177.7A.9.9,0,0,0,154.16,176.8Z"/><path class="cls-11" d="M193.09,174.13H172.64a1.06,1.06,0,0,0-.9,1.17v16.17a1.06,1.06,0,0,1,.9-1.17h20.45a1.06,1.06,0,0,1,.9,1.17V175.3A1.06,1.06,0,0,0,193.09,174.13Z"/><path class="cls-10" d="M116.07,129.7H95.62a.9.9,0,0,0-.9.9V143a.9.9,0,0,1,.9-.9h20.45a.9.9,0,0,1,.9.9V130.6A.9.9,0,0,0,116.07,129.7Z"/><path class="cls-10" d="M154.16,85.55H133.71a.9.9,0,0,0-.9.9V98.89a.9.9,0,0,1,.9-.9h20.45a.9.9,0,0,1,.9.9V86.44A.9.9,0,0,0,154.16,85.55Z"/><path class="cls-10" d="M193.09,137.4H172.64a.9.9,0,0,0-.9.9v12.44a.9.9,0,0,1,.9-.9h20.45a.9.9,0,0,1,.9.9V138.29A.9.9,0,0,0,193.09,137.4Z"/><rect class="cls-8" x="54.96" y="97.99" width="22.24" height="92.15" rx="0.9" ry="0.9"/><rect class="cls-8" x="93.89" y="130.06" width="22.24" height="60.08" rx="0.9" ry="0.9"/><rect class="cls-8" x="132.82" y="85.55" width="22.24" height="104.59" rx="0.9" ry="0.9"/><rect class="cls-8" x="171.75" y="136.37" width="22.24" height="53.77" rx="0.9" ry="0.9"/><circle class="cls-10" cx="66.08" cy="61.82" r="14.16"/><circle class="cls-10" cx="105.01" cy="92.75" r="14.16"/><circle class="cls-10" cx="143.94" cy="41.13" r="14.16"/><circle class="cls-10" cx="182.87" cy="99.71" r="14.16"/><circle class="cls-8" cx="66.08" cy="61.82" r="14.16"/><circle class="cls-8" cx="105.01" cy="92.75" r="14.16"/><circle class="cls-8" cx="143.94" cy="41.13" r="14.16"/><circle class="cls-8" cx="182.87" cy="99.71" r="14.16"/></g></g></svg>