<svg xmlns="http://www.w3.org/2000/svg" viewBox="0 0 278.72 218.44"><defs><style>.cls-1{opacity:0.5;}.cls-2{fill:#ddebff;opacity:0.4;}.cls-3{fill:#c2b9f3;}.cls-4{fill:#96d6ff;}.cls-5,.cls-6{fill:#fff;}.cls-6{stroke:#444;opacity:0.6;}.cls-6,.cls-9{stroke-miterlimit:10;stroke-width:2px;}.cls-7{fill:#e8f0f9;}.cls-8{fill:#bcd9ea;}.cls-9{fill:none;stroke:#6262a0;}.cls-10{fill:#463e3b;opacity:0.1;}</style></defs><title>Asset 180</title><g id="Layer_2" data-name="Layer 2"><g id="Layer_1-2" data-name="Layer 1"><g class="cls-1"><path class="cls-2" d="M273.32,68.63q-.27,1.56-.66,3.16c-2.21,9.07-7.52,17.25-10,26.26-5.92,21.83,13.49,41.28,6.88,62.57-2,6.4-6.43,11.9-11.36,16.71-12.69,12.39-28.86,21.08-44.78,29.6-7.38,3.95-15.48,8-23.89,6.9-7.94-1.07-14.36-6.6-22-8.91-15.25-4.61-30.91,4.17-46,9.16-11.92,3.93-24.88,5.54-37.32,3.44s-24.31-8.11-32-17.48c-5.33-6.46-8.83-14.54-16-19.18C29.58,176.59,21,176,14,172.43c-8.44-4.3-14-13.11-14-22.1C.09,135.27,14.09,123.84,20.39,110c5.12-11.25,5-23.93,4.1-36.12-1-13.79-2.91-28,.94-41.58,5.86-20.66,22-25.14,42.28-27.9,18.15-2.46,37.11-7.26,55.24-2,8.49,2.45,15.57,8,24.29,9.87,15.94,3.5,31.07-5.43,46.81-5.9,13.24-.39,27.28,2.71,39.38,7.59C256.75,23.32,277.67,43.09,273.32,68.63Z"/><polygon class="cls-3" points="31.16 151.74 27.8 150.87 24.33 151.26 24.2 148.09 22.72 145.21 26 144.12 28.55 141.94 30.71 144.45 33.77 145.98 31.82 148.62 31.16 151.74"/><polygon class="cls-4" points="74.61 24 71.25 23.13 67.78 23.52 67.66 20.35 66.17 17.47 69.45 16.38 72 14.21 74.16 16.71 77.22 18.24 75.27 20.88 74.61 24"/><polygon class="cls-4" points="250.91 176 247.55 175.13 244.08 175.52 243.95 172.35 242.46 169.47 245.75 168.38 248.3 166.21 250.46 168.71 253.52 170.24 251.57 172.88 250.91 176"/><polygon class="cls-4" points="85.67 209.4 82.31 208.52 78.84 208.92 78.71 205.74 77.22 202.86 80.51 201.78 83.06 199.6 85.22 202.1 88.28 203.64 86.33 206.27 85.67 209.4"/><polygon class="cls-3" points="238.7 47.16 233.86 45.9 228.86 46.47 228.68 41.9 226.54 37.75 231.27 36.18 234.94 33.05 238.05 36.66 242.46 38.86 239.65 42.66 238.7 47.16"/><path class="cls-5" d="M33.21,116.32H61.58a1.25,1.25,0,0,0,0-2.5H33.21a1.25,1.25,0,0,0,0,2.5Z"/><path class="cls-5" d="M35.88,121.64H50.07a1.25,1.25,0,0,0,0-2.5H35.88a1.25,1.25,0,0,0,0,2.5Z"/><path class="cls-5" d="M68.75,116.32h9.68a1.25,1.25,0,0,0,0-2.5H68.75a1.25,1.25,0,0,0,0,2.5Z"/><path class="cls-5" d="M17.4,127h7.11a1.25,1.25,0,0,0,0-2.5H17.4a1.25,1.25,0,0,0,0,2.5Z"/><path class="cls-5" d="M30.38,127H58.74a1.25,1.25,0,0,0,0-2.5H30.38a1.25,1.25,0,0,0,0,2.5Z"/><path class="cls-5" d="M161,182.11H132.62a1.25,1.25,0,0,0,0,2.5H161a1.25,1.25,0,0,0,0-2.5Z"/><path class="cls-5" d="M158.31,187.43H144.13a1.25,1.25,0,0,0,0,2.5h14.18a1.25,1.25,0,0,0,0-2.5Z"/><path class="cls-5" d="M125.45,182.11h-9.68a1.25,1.25,0,0,0,0,2.5h9.68a1.25,1.25,0,0,0,0-2.5Z"/><path class="cls-5" d="M176.79,192.76h-7.11a1.25,1.25,0,0,0,0,2.5h7.11a1.25,1.25,0,0,0,0-2.5Z"/><path class="cls-5" d="M163.81,192.76H135.45a1.25,1.25,0,0,0,0,2.5h28.36a1.25,1.25,0,0,0,0-2.5Z"/><path class="cls-5" d="M222,17.85H193.65a1.25,1.25,0,0,0,0,2.5H222a1.25,1.25,0,0,0,0-2.5Z"/><path class="cls-5" d="M219.34,23.18H205.16a1.25,1.25,0,0,0,0,2.5h14.18a1.25,1.25,0,0,0,0-2.5Z"/><path class="cls-5" d="M186.47,17.85h-9.68a1.25,1.25,0,0,0,0,2.5h9.68a1.25,1.25,0,0,0,0-2.5Z"/><path class="cls-5" d="M237.82,28.5H230.7a1.25,1.25,0,0,0,0,2.5h7.11a1.25,1.25,0,0,0,0-2.5Z"/><path class="cls-5" d="M224.84,28.5H196.48a1.25,1.25,0,0,0,0,2.5h28.36a1.25,1.25,0,0,0,0-2.5Z"/><path class="cls-6" d="M22.72,66.87c0,7.4,6.59,13.38,14.72,13.38h34.8c8.14,0,14.72-6,14.72-13.38,0-5.68-3.9-10.52-9.38-12.47v-.3c0-7.72-6.89-14-15.39-14a15.83,15.83,0,0,0-12.86,6.3A9.94,9.94,0,0,0,44.13,45c-5.18,0-9.37,3.81-9.37,8.52v.22C27.91,54.85,22.72,60.31,22.72,66.87Z"/><path class="cls-6" d="M257.69,116.87v-.22c0-4.66-4.15-8.43-9.27-8.43a9.84,9.84,0,0,0-5.15,1.42,15.67,15.67,0,0,0-12.73-6.24c-8.41,0-15.23,6.2-15.23,13.85v.3c-5.43,1.93-9.29,6.72-9.29,12.34,0,7.32,6.52,13.25,14.57,13.25H255c8.05,0,14.57-5.92,14.57-13.25C269.61,123.41,264.47,118,257.69,116.87Z"/></g><path class="cls-7" d="M49.66,33.24h188A11.37,11.37,0,0,1,249,44.6V179.17a0,0,0,0,1,0,0H38.3a0,0,0,0,1,0,0V44.6A11.37,11.37,0,0,1,49.66,33.24Z"/><rect class="cls-8" x="44.48" y="172.06" width="197.95" height="1.99"/><path class="cls-5" d="M235.27,33.24H52c-4.53,0-10.55,3.59-13.74,8.21v4.33a8.21,8.21,0,0,1,8.21-8.21H240.8A8.21,8.21,0,0,1,249,45.78l-1-3.89C246.94,39.17,239.8,33.24,235.27,33.24Z"/><path class="cls-9" d="M44.81,33.24H242.27a6.63,6.63,0,0,1,6.63,6.63v139.3a0,0,0,0,1,0,0H38.18a0,0,0,0,1,0,0V39.86A6.63,6.63,0,0,1,44.81,33.24Z"/><rect class="cls-5" x="44.68" y="46.24" width="197.22" height="124.98"/><rect class="cls-10" x="45.41" y="46.24" width="196.5" height="3.61"/><rect class="cls-9" x="45.41" y="46.24" width="196.26" height="124.98"/><path class="cls-7" d="M9.08,179.17H277.46a0,0,0,0,1,0,0V181a9,9,0,0,1-9,9H18a9,9,0,0,1-9-9v-1.87a0,0,0,0,1,0,0Z"/><rect class="cls-8" x="9.85" y="179.17" width="268.38" height="4.33"/><path class="cls-9" d="M9.34,179.17H277.72a0,0,0,0,1,0,0V181a9,9,0,0,1-9,9H18.3a9,9,0,0,1-9-9v-1.87a0,0,0,0,1,0,0Z"/><path class="cls-9" d="M116.93,179.46l2.14,1.38a18.62,18.62,0,0,0,10.07,2.9h29.33a18.25,18.25,0,0,0,11.92-4.28h0"/></g></g></svg>