<svg xmlns="http://www.w3.org/2000/svg" viewBox="0 0 248.95 218.44"><defs><style>.cls-1{opacity:0.5;}.cls-2{fill:#ddebff;}.cls-13,.cls-2{opacity:0.4;}.cls-3{fill:#c2b9f3;}.cls-4{fill:#96d6ff;}.cls-13,.cls-5,.cls-6{fill:#fff;}.cls-6{stroke:#444;opacity:0.6;}.cls-6,.cls-9{stroke-miterlimit:10;stroke-width:2px;}.cls-7{fill:#ebf4ff;}.cls-8{fill:#bfc8e0;}.cls-9{fill:none;stroke:#6262a0;}.cls-10{fill:#6262a0;}.cls-11{fill:#a8ef9e;}.cls-12{fill:#88c68f;}</style></defs><title>Asset 150</title><g id="Layer_2" data-name="Layer 2"><g id="Layer_1-2" data-name="Layer 1"><g class="cls-1"><path class="cls-2" d="M248.42,68.63q-.24,1.56-.6,3.16c-2,9.07-6.83,17.25-9.06,26.26-5.38,21.83,12.26,41.28,6.26,62.57-1.81,6.4-5.84,11.9-10.33,16.71-11.53,12.39-26.23,21.08-40.7,29.6-6.71,3.95-14.07,8-21.71,6.9-7.22-1.07-13.05-6.6-20-8.91-13.86-4.61-28.09,4.17-41.83,9.16-10.84,3.93-22.62,5.54-33.92,3.44S54.45,209.4,47.43,200c-4.84-6.46-8-14.54-14.55-19.18-6-4.26-13.77-4.84-20.16-8.42A25.69,25.69,0,0,1,0,150.33C.08,135.27,12.81,123.84,18.53,110c4.65-11.25,4.56-23.93,3.72-36.12-.95-13.79-2.64-28,.85-41.58,5.32-20.66,20-25.14,38.43-27.9,16.5-2.46,33.73-7.26,50.21-2,7.71,2.45,14.15,8,22.07,9.87,14.49,3.5,28.24-5.43,42.55-5.9,12-.39,24.79,2.71,35.79,7.59C233.36,23.32,252.38,43.09,248.42,68.63Z"/><polygon class="cls-3" points="28.32 151.74 25.27 150.87 22.11 151.26 22 148.09 20.65 145.21 23.63 144.12 25.95 141.94 27.91 144.45 30.7 145.98 28.92 148.62 28.32 151.74"/><polygon class="cls-4" points="67.82 24 64.76 23.13 61.61 23.52 61.49 20.35 60.14 17.47 63.13 16.38 65.45 14.21 67.4 16.71 70.19 18.24 68.41 20.88 67.82 24"/><polygon class="cls-4" points="228.05 176 225 175.13 221.84 175.52 221.73 172.35 220.38 169.47 223.36 168.38 225.68 166.21 227.64 168.71 230.43 170.24 228.65 172.88 228.05 176"/><polygon class="cls-4" points="77.87 209.4 74.81 208.52 71.66 208.92 71.54 205.74 70.19 202.86 73.18 201.78 75.5 199.6 77.45 202.1 80.24 203.64 78.46 206.27 77.87 209.4"/><polygon class="cls-3" points="216.96 47.16 212.56 45.9 208.01 46.47 207.85 41.9 205.9 37.75 210.2 36.18 213.54 33.05 216.36 36.66 220.38 38.86 217.82 42.66 216.96 47.16"/><path class="cls-5" d="M30.19,116.32H56a1.25,1.25,0,0,0,0-2.5H30.19a1.25,1.25,0,0,0,0,2.5Z"/><path class="cls-5" d="M32.62,121.64H45.5a1.25,1.25,0,0,0,0-2.5H32.62a1.25,1.25,0,0,0,0,2.5Z"/><path class="cls-5" d="M62.48,116.32h8.8a1.25,1.25,0,0,0,0-2.5h-8.8a1.25,1.25,0,0,0,0,2.5Z"/><path class="cls-5" d="M15.82,127h6.47a1.25,1.25,0,0,0,0-2.5H15.82a1.25,1.25,0,0,0,0,2.5Z"/><path class="cls-5" d="M27.62,127H53.39a1.25,1.25,0,0,0,0-2.5H27.62a1.25,1.25,0,0,0,0,2.5Z"/><path class="cls-5" d="M146.32,182.11H120.54a1.25,1.25,0,0,0,0,2.5h25.78a1.25,1.25,0,0,0,0-2.5Z"/><path class="cls-5" d="M143.89,187.43H131a1.25,1.25,0,0,0,0,2.5h12.89a1.25,1.25,0,0,0,0-2.5Z"/><path class="cls-5" d="M114,182.11h-8.8a1.25,1.25,0,0,0,0,2.5H114a1.25,1.25,0,0,0,0-2.5Z"/><path class="cls-5" d="M160.69,192.76h-6.47a1.25,1.25,0,0,0,0,2.5h6.47a1.25,1.25,0,0,0,0-2.5Z"/><path class="cls-5" d="M148.89,192.76H123.11a1.25,1.25,0,0,0,0,2.5h25.78a1.25,1.25,0,0,0,0-2.5Z"/><path class="cls-5" d="M201.78,17.85H176a1.25,1.25,0,0,0,0,2.5h25.78a1.25,1.25,0,0,0,0-2.5Z"/><path class="cls-5" d="M199.36,23.18H186.47a1.25,1.25,0,0,0,0,2.5h12.89a1.25,1.25,0,0,0,0-2.5Z"/><path class="cls-5" d="M169.49,17.85h-8.8a1.25,1.25,0,0,0,0,2.5h8.8a1.25,1.25,0,0,0,0-2.5Z"/><path class="cls-5" d="M216.15,28.5h-6.47a1.25,1.25,0,0,0,0,2.5h6.47a1.25,1.25,0,0,0,0-2.5Z"/><path class="cls-5" d="M204.36,28.5H178.58a1.25,1.25,0,0,0,0,2.5h25.78a1.25,1.25,0,0,0,0-2.5Z"/><path class="cls-6" d="M20.65,66.87A13.37,13.37,0,0,0,34,80.25H65.66A13.38,13.38,0,0,0,70.51,54.4v-.3a14,14,0,0,0-25.68-7.69A8.42,8.42,0,0,0,40.11,45a8.51,8.51,0,0,0-8.52,8.52v.22A13.39,13.39,0,0,0,20.65,66.87Z"/><path class="cls-6" d="M234.21,116.87v-.22a8.42,8.42,0,0,0-8.43-8.43,8.34,8.34,0,0,0-4.68,1.42,13.85,13.85,0,0,0-25.42,7.61v.3a13.24,13.24,0,0,0,4.8,25.59h31.31a13.25,13.25,0,0,0,2.41-26.27Z"/></g><rect class="cls-5" x="14.11" y="52.81" width="186.5" height="121.49" rx="11.22" ry="11.22"/><path class="cls-7" d="M200.6,64H14.1A11.21,11.21,0,0,1,25.32,52.81h164A11.23,11.23,0,0,1,200.6,64Z"/><rect class="cls-8" x="14.1" y="74.65" width="186.5" height="24.23"/><rect class="cls-9" x="14.1" y="52.81" width="186.5" height="121.49" rx="11.22" ry="11.22"/><path class="cls-10" d="M31.74,121.86H79.39a1.88,1.88,0,0,0,0-3.75H31.74a1.88,1.88,0,0,0,0,3.75Z"/><path class="cls-10" d="M31.74,135.57H79.39a1.88,1.88,0,0,0,0-3.75H31.74a1.88,1.88,0,0,0,0,3.75Z"/><path class="cls-10" d="M31.74,149.27H79.39a1.88,1.88,0,0,0,0-3.75H31.74a1.88,1.88,0,0,0,0,3.75Z"/><path class="cls-11" d="M152,108.59v16h-6.84a9.12,9.12,0,0,0-9.13,9.13v45.63a9.12,9.12,0,0,0,9.13,9.13h73a9.12,9.12,0,0,0,9.13-9.13V133.69a9.12,9.12,0,0,0-9.13-9.13h-6.84v-16a29.66,29.66,0,0,0-59.32,0Zm11.41,16v-16a18.25,18.25,0,1,1,36.51,0v16Zm9.13,25.1a9.13,9.13,0,1,1,14.08,7.67s.89,5.39,1.89,11.73a3.42,3.42,0,0,1-3.42,3.42h-6.85a3.42,3.42,0,0,1-3.42-3.42l1.89-11.73A9.11,9.11,0,0,1,172.52,149.66Z"/><path class="cls-12" d="M228,133.69v45.62a9.14,9.14,0,0,1-9.14,9.14h-9.14a9.14,9.14,0,0,0,9.14-9.14V133.69a9.15,9.15,0,0,0-4.8-8c.21-.37.39-.73.59-1.1h4.2A9.14,9.14,0,0,1,228,133.69Z"/><path class="cls-8" d="M218.15,124.3H211.3V109c0-15.67-13.27-28.36-29.65-28.36S152,93.34,152,109V124.3h-6.85a9.12,9.12,0,0,0-2.19.26h77.4A9.12,9.12,0,0,0,218.15,124.3Zm-18.25,0h-36.5V109c0-9.64,8.18-17.46,18.25-17.46S199.9,99.37,199.9,109Z"/><path class="cls-13" d="M181.65,84.49a29.65,29.65,0,0,1,29.65,29.65v-5.56a29.65,29.65,0,1,0-59.3,0v5.56A29.65,29.65,0,0,1,181.65,84.49Z"/><path class="cls-9" d="M152,108.59v16h-6.84a9.12,9.12,0,0,0-9.13,9.13v45.63a9.12,9.12,0,0,0,9.13,9.13h73a9.12,9.12,0,0,0,9.13-9.13V133.69a9.12,9.12,0,0,0-9.13-9.13h-6.84v-16a29.66,29.66,0,0,0-59.32,0Zm11.41,16v-16a18.25,18.25,0,1,1,36.51,0v16Zm9.13,25.1a9.13,9.13,0,1,1,14.08,7.67s.89,5.39,1.89,11.73a3.42,3.42,0,0,1-3.42,3.42h-6.85a3.42,3.42,0,0,1-3.42-3.42l1.89-11.73A9.11,9.11,0,0,1,172.52,149.66Z"/><line class="cls-9" x1="149.13" y1="124.56" x2="215.55" y2="124.56"/></g></g></svg>