<svg xmlns="http://www.w3.org/2000/svg" viewBox="0 0 248.95 225.36"><defs><style>.cls-1{opacity:0.5;}.cls-2{fill:#ddebff;}.cls-11,.cls-2{opacity:0.4;}.cls-3{fill:#c2b9f3;}.cls-4{fill:#96d6ff;}.cls-11,.cls-5,.cls-6{fill:#fff;}.cls-6{stroke:#444;opacity:0.6;}.cls-6,.cls-9{stroke-miterlimit:10;stroke-width:2px;}.cls-7{fill:#e2e8f5;}.cls-8{fill:#ff8c8c;}.cls-9{fill:none;stroke:#6262a0;}.cls-10{fill:#c7d2eb;}</style></defs><title>Asset 130</title><g id="Layer_2" data-name="Layer 2"><g id="Layer_1-2" data-name="Layer 1"><g class="cls-1"><path class="cls-2" d="M248.42,75.55q-.24,1.56-.6,3.16c-2,9.07-6.83,17.25-9.06,26.26C233.39,126.8,251,146.25,245,167.54c-1.81,6.4-5.84,11.9-10.33,16.71-11.53,12.39-26.23,21.08-40.7,29.6-6.71,3.95-14.07,8-21.71,6.9-7.22-1.07-13.05-6.6-20-8.91-13.86-4.61-28.09,4.17-41.83,9.16-10.84,3.93-22.62,5.54-33.92,3.44S54.45,216.32,47.43,207c-4.84-6.46-8-14.54-14.55-19.18-6-4.26-13.77-4.84-20.16-8.42A25.69,25.69,0,0,1,0,157.25c.08-15.06,12.81-26.49,18.53-40.35,4.65-11.25,4.56-23.93,3.72-36.12-.95-13.79-2.64-28,.85-41.58,5.32-20.66,20-25.14,38.43-27.9C78,8.83,95.27,4,111.75,9.27c7.71,2.45,14.15,8,22.07,9.87,14.49,3.5,28.24-5.43,42.55-5.9,12-.39,24.79,2.71,35.79,7.59C233.36,30.25,252.38,50,248.42,75.55Z"/><polygon class="cls-3" points="28.32 158.66 25.27 157.79 22.11 158.19 22 155.01 20.65 152.13 23.63 151.04 25.95 148.87 27.91 151.37 30.7 152.9 28.92 155.54 28.32 158.66"/><polygon class="cls-4" points="67.82 30.92 64.76 30.05 61.61 30.45 61.49 27.27 60.14 24.39 63.13 23.3 65.45 21.13 67.4 23.63 70.19 25.16 68.41 27.8 67.82 30.92"/><polygon class="cls-4" points="228.05 182.92 225 182.05 221.84 182.45 221.73 179.27 220.38 176.39 223.36 175.3 225.68 173.13 227.64 175.63 230.43 177.16 228.65 179.8 228.05 182.92"/><polygon class="cls-4" points="77.87 216.32 74.81 215.44 71.66 215.84 71.54 212.66 70.19 209.79 73.18 208.7 75.5 206.52 77.45 209.03 80.24 210.56 78.46 213.19 77.87 216.32"/><polygon class="cls-3" points="216.96 54.08 212.56 52.82 208.01 53.39 207.85 48.82 205.9 44.67 210.2 43.1 213.54 39.97 216.36 43.58 220.38 45.78 217.82 49.58 216.96 54.08"/><path class="cls-5" d="M30.19,123.24H56a1.25,1.25,0,0,0,0-2.5H30.19a1.25,1.25,0,0,0,0,2.5Z"/><path class="cls-5" d="M32.62,128.56H45.5a1.25,1.25,0,0,0,0-2.5H32.62a1.25,1.25,0,0,0,0,2.5Z"/><path class="cls-5" d="M62.48,123.24h8.8a1.25,1.25,0,0,0,0-2.5h-8.8a1.25,1.25,0,0,0,0,2.5Z"/><path class="cls-5" d="M15.82,133.88h6.47a1.25,1.25,0,0,0,0-2.5H15.82a1.25,1.25,0,0,0,0,2.5Z"/><path class="cls-5" d="M27.62,133.88H53.39a1.25,1.25,0,0,0,0-2.5H27.62a1.25,1.25,0,0,0,0,2.5Z"/><path class="cls-5" d="M146.32,189H120.54a1.25,1.25,0,0,0,0,2.5h25.78a1.25,1.25,0,0,0,0-2.5Z"/><path class="cls-5" d="M143.89,194.36H131a1.25,1.25,0,0,0,0,2.5h12.89a1.25,1.25,0,0,0,0-2.5Z"/><path class="cls-5" d="M114,189h-8.8a1.25,1.25,0,0,0,0,2.5H114a1.25,1.25,0,0,0,0-2.5Z"/><path class="cls-5" d="M160.69,199.68h-6.47a1.25,1.25,0,0,0,0,2.5h6.47a1.25,1.25,0,0,0,0-2.5Z"/><path class="cls-5" d="M148.89,199.68H123.11a1.25,1.25,0,0,0,0,2.5h25.78a1.25,1.25,0,0,0,0-2.5Z"/><path class="cls-5" d="M201.78,24.78H176a1.25,1.25,0,0,0,0,2.5h25.78a1.25,1.25,0,0,0,0-2.5Z"/><path class="cls-5" d="M199.36,30.1H186.47a1.25,1.25,0,0,0,0,2.5h12.89a1.25,1.25,0,0,0,0-2.5Z"/><path class="cls-5" d="M169.49,24.78h-8.8a1.25,1.25,0,0,0,0,2.5h8.8a1.25,1.25,0,0,0,0-2.5Z"/><path class="cls-5" d="M216.15,35.42h-6.47a1.25,1.25,0,0,0,0,2.5h6.47a1.25,1.25,0,0,0,0-2.5Z"/><path class="cls-5" d="M204.36,35.42H178.58a1.25,1.25,0,0,0,0,2.5h25.78a1.25,1.25,0,0,0,0-2.5Z"/><path class="cls-6" d="M20.65,73.79A13.37,13.37,0,0,0,34,87.17H65.66a13.38,13.38,0,0,0,4.85-25.85V61a14,14,0,0,0-25.68-7.69,8.42,8.42,0,0,0-4.73-1.44,8.51,8.51,0,0,0-8.52,8.52v.22A13.39,13.39,0,0,0,20.65,73.79Z"/><path class="cls-6" d="M234.21,123.79v-.22a8.42,8.42,0,0,0-8.43-8.43,8.34,8.34,0,0,0-4.68,1.42,13.85,13.85,0,0,0-25.42,7.61v.3a13.24,13.24,0,0,0,4.8,25.59h31.31a13.25,13.25,0,0,0,2.41-26.27Z"/></g><path class="cls-7" d="M186.33,192.23a15.59,15.59,0,0,0-20.34-6.4l-.16.1a7.89,7.89,0,0,1-10.46-3.31L139,151.33h0l-1.27-2.43,0,.07-3.44-6.2,20.56-36.84a71.19,71.19,0,0,0,8.33-45.36l-.39-2.62-37.9,67.87-3.66-6.6-32-61.27-.46,2.62a71.38,71.38,0,0,0,7.31,45.53l19.47,36.39-21.6,38.68a7.86,7.86,0,0,1-10.53,3.12l-.16-.1a15.55,15.55,0,1,0,6.49,21.42l18.3-32.8a3.84,3.84,0,0,1,5.25-1.48,4.37,4.37,0,0,0,6-1.71l5.52-9.88,3.37,6.31,2.1,4.46a4.43,4.43,0,0,0,5.94,1.84A3.85,3.85,0,0,1,141.4,174L159,207.15a15.57,15.57,0,1,0,27.32-14.92ZM82.2,201.38A6.89,6.89,0,1,1,79.54,192,6.9,6.9,0,0,1,82.2,201.38ZM176,205.94a6.89,6.89,0,1,1,2.85-9.32A6.9,6.9,0,0,1,176,205.94Z"/><path class="cls-8" d="M186.34,192.23A15.59,15.59,0,0,0,166,185.84l-.17.1a7.9,7.9,0,0,1-10.47-3.32l-12.3-23.49-15.16,6.49.23.44,2.1,4.46a4.43,4.43,0,0,0,5.94,1.83A3.86,3.86,0,0,1,141.4,174L159,207.16a15.57,15.57,0,1,0,27.32-14.93ZM176,205.94a6.89,6.89,0,1,1,2.86-9.31A6.91,6.91,0,0,1,176,205.94Z"/><path class="cls-8" d="M93.94,181.18a7.86,7.86,0,0,1-10.53,3.11,1.64,1.64,0,0,1-.17-.09,15.55,15.55,0,1,0,6.49,21.41L108,172.81a3.83,3.83,0,0,1,5.25-1.47,4.38,4.38,0,0,0,6-1.71l2.47-4.43-13.66-9.33ZM82.2,201.38A6.89,6.89,0,1,1,79.54,192,6.89,6.89,0,0,1,82.2,201.38Z"/><line class="cls-9" x1="108.07" y1="155.87" x2="121.73" y2="165.21"/><line class="cls-9" x1="128.15" y1="166.06" x2="143.07" y2="159.13"/><path class="cls-5" d="M163.72,65.58l-39.07,67.48L88.74,63.52c.06-.39.12-.78.19-1.17l.46-2.62,32,61.27,3.66,6.6,37.9-67.87.4,2.62C163.48,63.43,163.62,64.51,163.72,65.58Z"/><path class="cls-10" d="M163.72,81.68a71.18,71.18,0,0,1-8.5,25.54l-21,35.55c-.9-4.07.68-8.21,2.73-12C143.77,118.22,156.3,95.07,163.72,81.68Z"/><path class="cls-9" d="M186.33,192.23a15.59,15.59,0,0,0-20.34-6.4l-.16.1a7.89,7.89,0,0,1-10.46-3.31L139,151.33h0l-1.27-2.43,0,.07-3.44-6.2,20.56-36.84a71.19,71.19,0,0,0,8.33-45.36l-.39-2.62-37.9,67.87-3.66-6.6-32-61.27-.46,2.62a71.38,71.38,0,0,0,7.31,45.53l19.47,36.39-21.6,38.68a7.86,7.86,0,0,1-10.53,3.12l-.16-.1a15.55,15.55,0,1,0,6.49,21.42l18.3-32.8a3.84,3.84,0,0,1,5.25-1.48,4.37,4.37,0,0,0,6-1.71l5.52-9.88,3.37,6.31,2.1,4.46a4.43,4.43,0,0,0,5.94,1.84A3.85,3.85,0,0,1,141.4,174L159,207.15a15.57,15.57,0,1,0,27.32-14.92ZM82.2,201.38A6.89,6.89,0,1,1,79.54,192,6.9,6.9,0,0,1,82.2,201.38ZM176,205.94a6.89,6.89,0,1,1,2.85-9.32A6.9,6.9,0,0,1,176,205.94Z"/><path class="cls-8" d="M127.65,72.11v9.57h-6.52V72.38a36.85,36.85,0,0,1-16.89-4.06V56.1A26.2,26.2,0,0,0,112,59.94a35.94,35.94,0,0,0,9.16,2V45.91q-10.46-3.84-14.28-8.32A16.25,16.25,0,0,1,103,26.67a15.93,15.93,0,0,1,5-11.8q5-4.87,13.14-5.67V1h6.52V9q9.43.44,14.08,3V23.94a34.09,34.09,0,0,0-14.08-4.59V36.07q9.79,3.48,14,8a15.17,15.17,0,0,1,4.25,10.83,15.48,15.48,0,0,1-4.74,11.8Q136.45,71.14,127.65,72.11Zm-6.52-38.6v-14q-6.21,1.1-6.21,6.4Q114.91,30.47,121.12,33.51Zm6.52,14.91V61.79q6.39-1,6.39-6.31Q134,51.16,127.65,48.42Z"/><path class="cls-11" d="M121.4,45.91V61.5c1.22.24-1.09-.07,0,0V45.91c-7-2.56-8.26-5.33-10.81-8.32a16.25,16.25,0,0,1-3.82-10.92,15.93,15.93,0,0,1,5-11.8q5-4.87,13.14-5.67V1H121.4V9.21q-8.18.79-13.14,5.67a15.93,15.93,0,0,0-5,11.8,16.25,16.25,0,0,0,3.82,10.92Q110.94,42.07,121.4,45.91Z"/><path class="cls-9" d="M127.61,72.11v9.57h-6.44V72.38a36,36,0,0,1-16.67-4.06V56.1a25.74,25.74,0,0,0,7.63,3.84,35.09,35.09,0,0,0,9,2V45.91q-10.32-3.84-14.09-8.32a16.38,16.38,0,0,1-3.77-10.92,16,16,0,0,1,4.9-11.8q4.9-4.87,13-5.67V1h6.44V9q9.31.44,13.9,3V23.94a33.36,33.36,0,0,0-13.9-4.59V36.07q9.66,3.48,13.85,8a15.28,15.28,0,0,1,4.19,10.83A15.59,15.59,0,0,1,141,66.66Q136.3,71.14,127.61,72.11Zm-6.44-38.6v-14q-6.13,1.1-6.13,6.4Q115,30.47,121.17,33.51Zm6.44,14.91V61.79q6.31-1,6.31-6.31Q133.91,51.16,127.61,48.42Z"/></g></g></svg>